<svg width="400" height="400" viewBox="0 0 400 400" fill="none" xmlns="http://www.w3.org/2000/svg">
<rect x="1" y="1" width="398" height="398" stroke="#2C2C2C" stroke-width="2"/>
<path d="M200 0H400V200H200V0Z" fill="#C7956D"/>
<path d="M200 200H400V400H200V200Z" fill="#6B8CAE"/>
<path d="M0 200H200V400H0V200Z" fill="#E6C866"/>
<path d="M0 0H200V200H0V0Z" fill="#7A8471"/>
<path d="M95.8 174C86.4667 174 78.2667 172.267 71.2 168.8C64.2667 165.2 58.8667 160.2 55 153.8C51.2667 147.267 49.4 139.6 49.4 130.8V67.2C49.4 58.2667 51.2667 50.6 55 44.2C58.8667 37.8 64.2667 32.8667 71.2 29.4C78.2667 25.8 86.4667 24 95.8 24C105.267 24 113.4 25.8 120.2 29.4C127.133 32.8667 132.533 37.8 136.4 44.2C140.267 50.6 142.2 58.2667 142.2 67.2H117C117 60.2667 115.133 55 111.4 51.4C107.8 47.8 102.6 46 95.8 46C89 46 83.7333 47.8 80 51.4C76.2667 55 74.4 60.2 74.4 67V130.8C74.4 137.6 76.2667 142.867 80 146.6C83.7333 150.2 89 152 95.8 152C102.6 152 107.8 150.2 111.4 146.6C115.133 142.867 117 137.6 117 130.8H142.2C142.2 139.467 140.267 147.067 136.4 153.6C132.533 160.133 127.133 165.2 120.2 168.8C113.4 172.267 105.267 174 95.8 174Z" fill="#2C2C2C"/>
<path d="M137.15 345.28C131.091 345.28 125.843 344.128 121.406 341.824C116.969 339.52 113.513 336.277 111.038 332.096C108.649 327.915 107.454 323.008 107.454 317.376V277.184C107.454 271.552 108.649 266.645 111.038 262.464C113.513 258.283 116.969 255.04 121.406 252.736C125.843 250.432 131.091 249.28 137.15 249.28C143.294 249.28 148.542 250.432 152.894 252.736C157.331 255.04 160.745 258.283 163.134 262.464C165.609 266.645 166.846 271.552 166.846 277.184V317.376C166.846 323.008 165.609 327.915 163.134 332.096C160.745 336.277 157.331 339.52 152.894 341.824C148.457 344.128 143.209 345.28 137.15 345.28ZM137.15 331.456C141.587 331.456 145.129 330.176 147.774 327.616C150.419 325.056 151.742 321.643 151.742 317.376V277.184C151.742 272.917 150.419 269.504 147.774 266.944C145.129 264.384 141.587 263.104 137.15 263.104C132.713 263.104 129.171 264.384 126.526 266.944C123.881 269.504 122.558 272.917 122.558 277.184V317.376C122.558 321.643 123.881 325.056 126.526 327.616C129.171 330.176 132.713 331.456 137.15 331.456ZM137.15 305.6C134.675 305.6 132.627 304.789 131.006 303.168C129.47 301.547 128.702 299.456 128.702 296.896C128.702 294.336 129.47 292.288 131.006 290.752C132.542 289.216 134.59 288.448 137.15 288.448C139.71 288.448 141.758 289.216 143.294 290.752C144.83 292.288 145.598 294.336 145.598 296.896C145.598 299.456 144.83 301.547 143.294 303.168C141.758 304.789 139.71 305.6 137.15 305.6Z" fill="#2C2C2C"/>
<path d="M32.112 344V328.512L61.296 299.2C65.392 295.019 68.4213 291.264 70.384 287.936C72.3467 284.523 73.328 281.024 73.328 277.44C73.328 273.088 72.1333 269.717 69.744 267.328C67.3547 264.853 64.112 263.616 60.016 263.616C55.4933 263.616 51.952 264.939 49.392 267.584C46.832 270.144 45.552 273.728 45.552 278.336H29.552C29.6373 272.363 30.9173 267.243 33.392 262.976C35.952 258.624 39.536 255.253 44.144 252.864C48.752 250.475 54.128 249.28 60.272 249.28C66.16 249.28 71.28 250.389 75.632 252.608C79.984 254.827 83.3547 257.941 85.744 261.952C88.1333 265.963 89.328 270.741 89.328 276.288C89.328 282.005 87.8347 287.595 84.848 293.056C81.9467 298.432 77.2533 304.235 70.768 310.464L51.312 329.536H90.48V344H32.112Z" fill="#2C2C2C"/>
<path d="M342.15 345.28C335.921 345.28 330.417 344 325.638 341.44C320.945 338.795 317.275 335.125 314.63 330.432C312.07 325.653 310.79 320.149 310.79 313.92C310.79 309.483 311.515 304.832 312.966 299.968C314.502 295.104 316.593 290.539 319.238 286.272L341.254 250.56H359.046L331.398 294.08L332.166 294.592C333.873 291.947 336.177 289.941 339.078 288.576C341.979 287.211 345.222 286.528 348.806 286.528C353.841 286.528 358.193 287.723 361.862 290.112C365.531 292.501 368.39 295.829 370.438 300.096C372.486 304.363 373.51 309.355 373.51 315.072C373.51 321.131 372.187 326.421 369.542 330.944C366.982 335.467 363.355 339.008 358.662 341.568C354.054 344.043 348.55 345.28 342.15 345.28ZM342.15 331.712C346.843 331.712 350.641 330.219 353.542 327.232C356.443 324.16 357.894 320.192 357.894 315.328C357.894 310.293 356.443 306.283 353.542 303.296C350.641 300.224 346.843 298.688 342.15 298.688C337.457 298.688 333.659 300.224 330.758 303.296C327.857 306.283 326.406 310.293 326.406 315.328C326.406 320.192 327.857 324.16 330.758 327.232C333.659 330.219 337.457 331.712 342.15 331.712Z" fill="#2C2C2C"/>
<path d="M237.112 344V328.512L266.296 299.2C270.392 295.019 273.421 291.264 275.384 287.936C277.347 284.523 278.328 281.024 278.328 277.44C278.328 273.088 277.133 269.717 274.744 267.328C272.355 264.853 269.112 263.616 265.016 263.616C260.493 263.616 256.952 264.939 254.392 267.584C251.832 270.144 250.552 273.728 250.552 278.336H234.552C234.637 272.363 235.917 267.243 238.392 262.976C240.952 258.624 244.536 255.253 249.144 252.864C253.752 250.475 259.128 249.28 265.272 249.28C271.16 249.28 276.28 250.389 280.632 252.608C284.984 254.827 288.355 257.941 290.744 261.952C293.133 265.963 294.328 270.741 294.328 276.288C294.328 282.005 292.835 287.595 289.848 293.056C286.947 298.432 282.253 304.235 275.768 310.464L256.312 329.536H295.48V344H237.112Z" fill="#2C2C2C"/>
<path d="M281.4 172V49.2H243.2V26H344.8V49.2H306.6V172H281.4Z" fill="#2C2C2C"/>
</svg>
