<svg width="400" height="200" viewBox="0 0 400 200" fill="none" xmlns="http://www.w3.org/2000/svg">
<path d="M0 0H200V200H0V0Z" fill="#1B4332"/>
<path d="M200 0H400V200H200V0Z" fill="#40826D"/>
<path d="M125.605 150L99.8453 47.8H118.045L133.445 114.44C134.285 117.707 135.079 121.207 135.825 124.94C136.572 128.673 137.132 131.707 137.505 134.04C137.879 131.707 138.392 128.673 139.045 124.94C139.699 121.207 140.399 117.66 141.145 114.3L156.405 47.8H174.045L148.285 150H125.605Z" fill="#F2F2F2"/>
<path d="M21.5 150V47.8H51.88C58.7867 47.8 64.76 49.1067 69.8 51.72C74.9333 54.3333 78.9 58.02 81.7 62.78C84.5 67.54 85.9 73.1867 85.9 79.72V117.94C85.9 124.38 84.5 130.027 81.7 134.88C78.9 139.64 74.9333 143.373 69.8 146.08C64.76 148.693 58.7867 150 51.88 150H21.5ZM39 133.9H51.88C56.92 133.9 60.9333 132.5 63.92 129.7C66.9067 126.807 68.4 122.887 68.4 117.94V79.72C68.4 74.8667 66.9067 71.04 63.92 68.24C60.9333 65.3467 56.92 63.9 51.88 63.9H39V133.9Z" fill="#F2F2F2"/>
<path d="M340.945 151.4C334.319 151.4 328.579 150.14 323.725 147.62C318.872 145.1 315.092 141.553 312.385 136.98C309.772 132.407 308.465 127.04 308.465 120.88V76.92C308.465 70.76 309.772 65.3933 312.385 60.82C315.092 56.2467 318.872 52.7 323.725 50.18C328.579 47.66 334.319 46.4 340.945 46.4C347.665 46.4 353.405 47.66 358.165 50.18C363.019 52.7 366.752 56.2467 369.365 60.82C372.072 65.3933 373.425 70.76 373.425 76.92V120.88C373.425 127.04 372.072 132.407 369.365 136.98C366.752 141.553 363.019 145.1 358.165 147.62C353.312 150.14 347.572 151.4 340.945 151.4ZM340.945 136.28C345.799 136.28 349.672 134.88 352.565 132.08C355.459 129.28 356.905 125.547 356.905 120.88V76.92C356.905 72.2533 355.459 68.52 352.565 65.72C349.672 62.92 345.799 61.52 340.945 61.52C336.092 61.52 332.219 62.92 329.325 65.72C326.432 68.52 324.985 72.2533 324.985 76.92V120.88C324.985 125.547 326.432 129.28 329.325 132.08C332.219 134.88 336.092 136.28 340.945 136.28ZM340.945 108C338.239 108 335.999 107.113 334.225 105.34C332.545 103.567 331.705 101.28 331.705 98.48C331.705 95.68 332.545 93.44 334.225 91.76C335.905 90.08 338.145 89.24 340.945 89.24C343.745 89.24 345.985 90.08 347.665 91.76C349.345 93.44 350.185 95.68 350.185 98.48C350.185 101.28 349.345 103.567 347.665 105.34C345.985 107.113 343.745 108 340.945 108Z" fill="#E6C866"/>
<path d="M257 151.4C250.187 151.4 244.167 150 238.94 147.2C233.807 144.307 229.793 140.293 226.9 135.16C224.1 129.933 222.7 123.913 222.7 117.1C222.7 112.247 223.493 107.16 225.08 101.84C226.76 96.52 229.047 91.5267 231.94 86.86L256.02 47.8H275.48L245.24 95.4L246.08 95.96C247.947 93.0667 250.467 90.8733 253.64 89.38C256.813 87.8867 260.36 87.14 264.28 87.14C269.787 87.14 274.547 88.4467 278.56 91.06C282.573 93.6733 285.7 97.3133 287.94 101.98C290.18 106.647 291.3 112.107 291.3 118.36C291.3 124.987 289.853 130.773 286.96 135.72C284.16 140.667 280.193 144.54 275.06 147.34C270.02 150.047 264 151.4 257 151.4ZM257 136.56C262.133 136.56 266.287 134.927 269.46 131.66C272.633 128.3 274.22 123.96 274.22 118.64C274.22 113.133 272.633 108.747 269.46 105.48C266.287 102.12 262.133 100.44 257 100.44C251.867 100.44 247.713 102.12 244.54 105.48C241.367 108.747 239.78 113.133 239.78 118.64C239.78 123.96 241.367 128.3 244.54 131.66C247.713 134.927 251.867 136.56 257 136.56Z" fill="#E6C866"/>
</svg>
